<svg xmlns="http://www.w3.org/2000/svg" viewBox="0 0 128 128" fill="none">
  <defs>
    <linearGradient id="kg" x1="0" y1="0" x2="128" y2="128" gradientUnits="userSpaceOnUse">
      <stop offset="0%" stop-color="#f97316"/>
      <stop offset="100%" stop-color="#c2410c"/>
    </linearGradient>
  </defs>
  <rect width="128" height="128" rx="28" fill="url(#kg)"/>
  <!-- Chef Hat / Cooking flame silhouette -->
  <path d="M42 88h44v8H42v-8zm2-8h40c2 0 4-2 4-4 0-1-1-2-1-3 7-4 9-13 4-20-3-4-8-6-13-5-2-8-10-14-19-14-9 0-17 6-19 14-5-1-10 1-13 5-5 7-3 16 4 20 0 1-1 2-1 3 0 2 2 4 4 4z" fill="#ffffff" fill-opacity="0.95"/>
  <circle cx="64" cy="56" r="4" fill="#f97316"/>
  <path d="M54 72h20v4H54v-4z" fill="#ffffff" fill-opacity="0.8"/>
</svg>
